<svg width="27" height="44" viewBox="0 0 27 44" fill="none" xmlns="http://www.w3.org/2000/svg">
<path id="Vector" d="M1.38585 1.2809C1.74819 0.917816 2.17859 0.629754 2.6524 0.43321C3.12621 0.236666 3.63413 0.135498 4.14709 0.135498C4.66005 0.135498 5.16798 0.236666 5.64179 0.43321C6.1156 0.629754 6.546 0.917816 6.90834 1.2809L24.8858 19.2584C25.2489 19.6208 25.537 20.0511 25.7335 20.525C25.9301 20.9988 26.0312 21.5067 26.0312 22.0197C26.0312 22.5326 25.9301 23.0405 25.7335 23.5144C25.537 23.9882 25.2489 24.4186 24.8858 24.7809L6.90834 42.7584C6.54573 43.121 6.11525 43.4087 5.64147 43.6049C5.1677 43.8011 4.65991 43.9021 4.14709 43.9021C3.63428 43.9021 3.12649 43.8011 2.65272 43.6049C2.17894 43.4087 1.74846 43.121 1.38585 42.7584C1.02323 42.3958 0.735594 41.9653 0.539349 41.4915C0.343105 41.0178 0.242096 40.51 0.242096 39.9972C0.242096 39.4843 0.343105 38.9766 0.539349 38.5028C0.735594 38.029 1.02323 37.5985 1.38585 37.2359L16.5825 22.0001L1.38585 6.8034C-0.141655 5.2759 -0.102489 2.76924 1.38585 1.2809Z" fill="#9758A6"/>
</svg>
