<svg width="27" height="44" viewBox="0 0 27 44" fill="none" xmlns="http://www.w3.org/2000/svg">
<path id="Vector" d="M25.6142 1.2809C25.2518 0.917816 24.8214 0.629754 24.3476 0.43321C23.8738 0.236666 23.3659 0.135498 22.8529 0.135498C22.3399 0.135498 21.832 0.236666 21.3582 0.43321C20.8844 0.629754 20.454 0.917816 20.0917 1.2809L2.11416 19.2584C1.75107 19.6208 1.46301 20.0511 1.26646 20.525C1.06992 20.9988 0.96875 21.5067 0.96875 22.0197C0.96875 22.5326 1.06992 23.0405 1.26646 23.5144C1.46301 23.9882 1.75107 24.4186 2.11416 24.7809L20.0917 42.7584C20.4543 43.121 20.8848 43.4087 21.3585 43.6049C21.8323 43.8011 22.3401 43.9021 22.8529 43.9021C23.3657 43.9021 23.8735 43.8011 24.3473 43.6049C24.8211 43.4087 25.2515 43.121 25.6142 42.7584C25.9768 42.3958 26.2644 41.9653 26.4607 41.4915C26.6569 41.0178 26.7579 40.51 26.7579 39.9972C26.7579 39.4843 26.6569 38.9766 26.4607 38.5028C26.2644 38.029 25.9768 37.5985 25.6142 37.2359L10.4175 22.0001L25.6142 6.8034C27.1417 5.2759 27.1025 2.76924 25.6142 1.2809Z" fill="#BEBEBE"/>
</svg>
