<svg width="42" height="44" viewBox="0 0 42 44" fill="none" xmlns="http://www.w3.org/2000/svg">
<path d="M22.6367 17.1513C22.0536 17.1513 21.5645 16.9537 21.1694 16.5586C20.7743 16.1635 20.5774 15.6751 20.5788 15.0934V10.9776H16.4631C15.88 10.9776 15.3909 10.7801 14.9958 10.385C14.6007 9.98986 14.4038 9.50146 14.4052 8.91977C14.4052 8.3367 14.6027 7.84761 14.9978 7.4525C15.393 7.05738 15.8814 6.86051 16.4631 6.86188H20.5788V2.74612C20.5788 2.16305 20.7764 1.67396 21.1715 1.27885C21.5666 0.883738 22.055 0.686868 22.6367 0.68824C23.2198 0.68824 23.7089 0.885796 24.104 1.28091C24.4991 1.67602 24.696 2.16443 24.6946 2.74612V6.86188H28.8103C29.3934 6.86188 29.8825 7.05944 30.2776 7.45455C30.6727 7.84967 30.8696 8.33807 30.8682 8.91977C30.8682 9.50283 30.6707 9.99192 30.2756 10.387C29.8804 10.7821 29.392 10.979 28.8103 10.9776H24.6946V15.0934C24.6946 15.6765 24.497 16.1656 24.1019 16.5607C23.7068 16.9558 23.2184 17.1527 22.6367 17.1513ZM12.3473 43.9038C11.2155 43.9038 10.2462 43.5004 9.43951 42.6937C8.63282 41.887 8.23016 40.9185 8.23153 39.788C8.23153 38.6562 8.63488 37.6869 9.44157 36.8802C10.2483 36.0735 11.2168 35.6709 12.3473 35.6722C13.4791 35.6722 14.4484 36.0756 15.2551 36.8823C16.0618 37.6889 16.4644 38.6575 16.4631 39.788C16.4631 40.9198 16.0597 41.8891 15.253 42.6958C14.4463 43.5025 13.4778 43.9051 12.3473 43.9038ZM32.9261 43.9038C31.7943 43.9038 30.825 43.5004 30.0183 42.6937C29.2116 41.887 28.809 40.9185 28.8103 39.788C28.8103 38.6562 29.2137 37.6869 30.0204 36.8802C30.8271 36.0735 31.7956 35.6709 32.9261 35.6722C34.0579 35.6722 35.0272 36.0756 35.8339 36.8823C36.6406 37.6889 37.0432 38.6575 37.0419 39.788C37.0419 40.9198 36.6385 41.8891 35.8318 42.6958C35.0252 43.5025 34.0566 43.9051 32.9261 43.9038ZM12.3473 33.6143C10.7696 33.6143 9.57739 32.9366 8.7707 31.5812C7.96401 30.2257 7.95578 28.8798 8.746 27.5436L11.5241 22.5018L4.11577 6.86188H2.05789C1.47482 6.86188 0.985732 6.66433 0.590619 6.26921C0.195506 5.8741 -0.0013648 5.3857 7.1207e-06 4.804C7.1207e-06 4.22094 0.197564 3.73185 0.592677 3.33673C0.98779 2.94162 1.47619 2.74475 2.05789 2.74612H5.45339C5.83067 2.74612 6.1908 2.84902 6.53378 3.0548C6.87676 3.26059 7.134 3.55212 7.30549 3.9294L15.4856 21.2671H29.9422L37.3506 7.89083C37.522 7.58214 37.7621 7.33314 38.0708 7.14381C38.3795 6.95449 38.7225 6.86051 39.0998 6.86188C39.8886 6.86188 40.4806 7.19663 40.8757 7.86613C41.2708 8.53563 41.279 9.21267 40.9004 9.89726L33.5435 23.222C33.1662 23.908 32.66 24.4396 32.0248 24.8169C31.3896 25.1942 30.6954 25.3828 29.9422 25.3828H14.611L12.3473 29.4986H34.984C35.5671 29.4986 36.0561 29.6961 36.4513 30.0913C36.8464 30.4864 37.0432 30.9748 37.0419 31.5565C37.0419 32.1395 36.8443 32.6286 36.4492 33.0237C36.0541 33.4188 35.5657 33.6157 34.984 33.6143H12.3473Z" fill="white"/>
</svg>
