<svg width="53" height="53" viewBox="0 0 53 53" fill="none" xmlns="http://www.w3.org/2000/svg">
<path d="M11.0417 46.375C9.82709 46.375 8.78696 45.9422 7.9213 45.0765C7.05563 44.2108 6.62353 43.1714 6.625 41.9583V33.125H11.0417V41.9583H41.9583V11.0417H11.0417V19.875H6.625V11.0417C6.625 9.82709 7.05784 8.78696 7.9235 7.9213C8.78917 7.05563 9.82856 6.62353 11.0417 6.625H41.9583C43.1729 6.625 44.213 7.05784 45.0787 7.9235C45.9444 8.78917 46.3765 9.82856 46.375 11.0417V41.9583C46.375 43.1729 45.9422 44.213 45.0765 45.0787C44.2108 45.9444 43.1714 46.3765 41.9583 46.375H11.0417ZM23.1875 37.5417L20.0958 34.3396L25.7271 28.7083H6.625V24.2917H25.7271L20.0958 18.6604L23.1875 15.4583L34.2292 26.5L23.1875 37.5417Z" fill="white"/>
</svg>
