<svg width="38" height="34" viewBox="0 0 38 34" fill="none" xmlns="http://www.w3.org/2000/svg">
<path d="M12.3473 31.7338V27.6181H37.0419V31.7338H12.3473ZM12.3473 19.3865V15.2708H37.0419V19.3865H12.3473ZM12.3473 7.03925V2.92349H37.0419V7.03925H12.3473ZM4.11577 33.7917C2.98393 33.7917 2.01467 33.3884 1.20798 32.5817C0.40129 31.775 -0.00136843 30.8064 3.49386e-06 29.6759C3.49386e-06 28.5441 0.403348 27.5749 1.21004 26.7682C2.01673 25.9615 2.9853 25.5588 4.11577 25.5602C5.2476 25.5602 6.21686 25.9635 7.02355 26.7702C7.83024 27.5769 8.2329 28.5455 8.23153 29.6759C8.23153 30.8078 7.82818 31.777 7.02149 32.5837C6.21481 33.3904 5.24623 33.7931 4.11577 33.7917ZM4.11577 21.4444C2.98393 21.4444 2.01467 21.0411 1.20798 20.2344C0.40129 19.4277 -0.00136843 18.4591 3.49386e-06 17.3287C3.49386e-06 16.1968 0.403348 15.2276 1.21004 14.4209C2.01673 13.6142 2.9853 13.2115 4.11577 13.2129C5.2476 13.2129 6.21686 13.6162 7.02355 14.4229C7.83024 15.2296 8.2329 16.1982 8.23153 17.3287C8.23153 18.4605 7.82818 19.4298 7.02149 20.2364C6.21481 21.0431 5.24623 21.4458 4.11577 21.4444ZM4.11577 9.09713C2.98393 9.09713 2.01467 8.69379 1.20798 7.8871C0.40129 7.08041 -0.00136843 6.11183 3.49386e-06 4.98137C3.49386e-06 3.84953 0.403348 2.88027 1.21004 2.07358C2.01673 1.26689 2.9853 0.864232 4.11577 0.865604C5.2476 0.865604 6.21686 1.26895 7.02355 2.07564C7.83024 2.88233 8.2329 3.8509 8.23153 4.98137C8.23153 6.1132 7.82818 7.08246 7.02149 7.88915C6.21481 8.69584 5.24623 9.0985 4.11577 9.09713Z" fill="white"/>
</svg>
