<svg width="48" height="46" viewBox="0 0 48 46" fill="none" xmlns="http://www.w3.org/2000/svg">
<path d="M1.1501 20.9707C0.888508 20.8262 0.658623 20.6302 0.474199 20.3944C0.289775 20.1585 0.154601 19.8877 0.0767671 19.5982C-0.00106697 19.3087 -0.0199617 19.0064 0.0212136 18.7093C0.0623888 18.4123 0.162788 18.1266 0.316402 17.8695L3.69624 12.0066C3.9441 11.5538 4.32715 11.2369 4.75526 11.0558L22.398 1.09569C22.7585 0.824053 23.2092 0.688232 23.6824 0.688232C24.1555 0.688232 24.6062 0.824053 24.9667 1.09569L42.7672 11.1464C43.1953 11.3728 43.5558 11.7349 43.7586 12.1877L47.0258 17.8921C47.6567 18.9787 47.2736 20.3595 46.2146 20.9707L43.9614 22.2836V33.5114C43.9614 34.3716 43.4882 35.1186 42.7672 35.5035L24.9667 45.5542C24.6062 45.8258 24.1555 45.9616 23.6824 45.9616C23.2092 45.9616 22.7585 45.8258 22.398 45.5542L4.59753 35.5035C4.23629 35.3128 3.93398 35.0262 3.72345 34.675C3.51291 34.3239 3.40219 33.9214 3.40332 33.5114V20.9707C2.72736 21.3555 1.87113 21.3782 1.1501 20.9707ZM23.6824 5.55512V20.7217L37.1116 13.1384L23.6824 5.55512ZM7.90978 32.1759L21.4291 39.8271V24.6379L7.90978 17.0093V32.1759ZM39.4549 32.1759V24.8869L28.1888 31.4515C27.4452 31.859 26.6116 31.8363 25.9356 31.4741V39.8271L39.4549 32.1759ZM27.8508 26.4035L42.0011 18.1864L40.6942 15.9001L26.544 24.1172L27.8508 26.4035Z" fill="white"/>
</svg>
