<svg fill="#9E1C00" width="80px" height="80px" viewBox="-0.1 0 2.4 2.4" xmlns="http://www.w3.org/2000/svg"><path d="M1.631 0.4V0.214C1.631 0.096 1.535 0 1.417 0H0.783A0.214 0.214 0 0 0 0.569 0.219v0V0.4H0v0.2h0.057c0.02 0.002 0.037 0.01 0.052 0.021l0 0c0.012 0.016 0.02 0.035 0.024 0.055l0 0.001 0.119 1.511c0.009 0.184 0.009 0.212 0.225 0.212h1.246c0.216 0 0.216 -0.028 0.225 -0.211l0.119 -1.51c0.004 -0.022 0.012 -0.041 0.024 -0.057l0 0a0.1 0.1 0 0 1 0.051 -0.021h0.058v-0.2h-0.569zM0.7 0.219c0 -0.06 0.049 -0.094 0.111 -0.094h0.573c0.062 0 0.116 0.034 0.116 0.094V0.4h-0.8zM0.647 2l-0.064 -1.2h0.127l0.066 1.2zm0.522 0H1.032V0.8h0.138zm0.385 0h-0.128l0.066 -1.2h0.127z"/></svg>